<?xml version="1.0" standalone="no"?>
<!DOCTYPE svg PUBLIC "-//W3C//DTD SVG 20010904//EN"
 "http://www.w3.org/TR/2001/REC-SVG-20010904/DTD/svg10.dtd">
<svg version="1.0" xmlns="http://www.w3.org/2000/svg"
 width="1280.000000pt" height="1280.000000pt" viewBox="0 0 1280.000000 1280.000000"
 preserveAspectRatio="xMidYMid meet">

<g transform="translate(0.000000,1280.000000) scale(0.100000,-0.100000)"
fill="#000000" stroke="none">
<path d="M6803 8545 c0 -8 4 -12 9 -9 5 3 6 10 3 15 -9 13 -12 11 -12 -6z"/>
<path d="M6770 8497 c0 -2 6 -10 14 -16 11 -9 16 -9 22 1 4 7 4 10 -1 6 -4 -4
-14 -3 -22 3 -7 6 -13 9 -13 6z"/>
<path d="M6850 8480 c6 -11 13 -20 16 -20 2 0 0 9 -6 20 -6 11 -13 20 -16 20
-2 0 0 -9 6 -20z"/>
<path d="M6845 8400 c10 -11 20 -20 23 -20 3 0 -3 9 -13 20 -10 11 -20 20 -23
20 -3 0 3 -9 13 -20z"/>
<path d="M6884 8348 c15 -23 36 -30 36 -12 0 3 -5 2 -12 -2 -8 -5 -9 -2 -4 12
4 10 4 15 0 11 -4 -4 -14 -1 -22 6 -11 9 -11 5 2 -15z"/>
<path d="M6916 8312 c-2 -4 4 -19 15 -32 l19 -25 -11 33 c-11 34 -15 37 -23
24z"/>
<path d="M6970 8270 c0 -5 0 -12 0 -15 0 -3 3 -5 6 -4 4 0 10 -5 15 -12 4 -8
11 -11 14 -7 3 3 -1 12 -9 21 -8 8 -12 17 -9 21 4 3 1 6 -5 6 -7 0 -12 -4 -12
-10z"/>
<path d="M6980 8212 c6 -13 16 -20 22 -16 7 5 9 2 5 -8 -3 -9 3 -25 14 -36 10
-12 19 -26 19 -32 0 -6 10 -15 23 -20 12 -5 16 -9 10 -9 -7 -1 13 -40 43 -88
63 -98 85 -126 59 -73 -10 19 -23 38 -29 42 -6 4 -7 8 -3 8 10 0 -41 91 -57
102 -7 5 -7 8 -1 8 6 0 -1 10 -15 21 -14 11 -19 17 -11 13 9 -4 12 -2 9 7 -3
8 -10 14 -15 14 -6 0 -15 3 -19 8 -4 4 -2 7 4 7 9 0 9 6 0 25 -6 13 -14 22
-19 20 -4 -3 -10 1 -12 7 -4 9 -6 9 -6 -1 -1 -11 -5 -10 -17 5 -14 18 -15 18
-4 -4z"/>
<path d="M6000 8181 c0 -10 19 -25 25 -20 1 2 -3 10 -11 17 -8 7 -14 8 -14 3z"/>
<path d="M6045 8133 c16 -16 16 -17 -1 -30 -18 -13 -9 -18 25 -14 7 2 11 -2 8
-6 -3 -5 8 -17 25 -27 30 -18 30 -18 19 2 -6 12 -19 26 -29 31 -9 6 -13 11 -8
11 12 0 -34 50 -46 50 -5 0 -2 -8 7 -17z m35 -27 c0 -2 -7 -7 -16 -10 -8 -3
-12 -2 -9 4 6 10 25 14 25 6z"/>
<path d="M6490 8131 c0 -6 4 -13 10 -16 6 -3 7 1 4 9 -7 18 -14 21 -14 7z"/>
<path d="M6566 8007 c3 -10 9 -15 12 -12 3 3 0 11 -7 18 -10 9 -11 8 -5 -6z"/>
<path d="M6590 7985 c0 -5 5 -17 10 -25 5 -8 10 -10 10 -5 0 6 -5 17 -10 25
-5 8 -10 11 -10 5z"/>
<path d="M6620 7911 c0 -6 4 -13 10 -16 6 -3 7 1 4 9 -7 18 -14 21 -14 7z"/>
<path d="M6627 7869 c7 -7 15 -10 18 -7 3 3 -2 9 -12 12 -14 6 -15 5 -6 -5z"/>
<path d="M6647 7810 c7 -25 22 -36 18 -13 -2 10 -4 21 -4 26 -1 4 -5 7 -10 7
-5 0 -7 -9 -4 -20z"/>
<path d="M6673 7725 c0 -22 2 -30 4 -17 2 12 2 30 0 40 -3 9 -5 -1 -4 -23z"/>
<path d="M6673 7625 c0 -33 2 -45 4 -27 2 18 2 45 0 60 -2 15 -4 0 -4 -33z"/>
<path d="M6511 7654 c0 -11 3 -14 6 -6 3 7 2 16 -1 19 -3 4 -6 -2 -5 -13z"/>
<path d="M6643 7479 c3 -9 -1 -26 -9 -38 -8 -11 -11 -21 -6 -21 5 0 14 12 21
27 9 20 9 29 0 37 -9 8 -11 7 -6 -5z"/>
<path d="M6613 7395 c0 -8 4 -12 9 -9 5 3 6 10 3 15 -9 13 -12 11 -12 -6z"/>
<path d="M6485 6681 c44 -7 90 -34 90 -53 0 -6 7 -13 15 -15 12 -4 12 -3 2 5
-8 5 -12 13 -10 18 6 17 -64 54 -101 53 l-36 -2 40 -6z"/>
<path d="M6588 6592 c8 -5 11 -18 7 -34 -4 -15 -2 -29 4 -32 6 -4 11 -12 11
-17 0 -6 -4 -7 -10 -4 -6 4 -7 -1 -3 -11 6 -16 8 -15 17 5 6 15 6 25 0 29 -6
4 -10 20 -10 36 1 18 -5 31 -14 33 -12 4 -12 2 -2 -5z"/>
<path d="M6598 6425 c-3 -14 -1 -25 3 -25 5 0 9 11 9 25 0 14 -2 25 -4 25 -2
0 -6 -11 -8 -25z"/>
<path d="M6570 6419 c0 -5 5 -7 10 -4 6 3 10 8 10 11 0 2 -4 4 -10 4 -5 0 -10
-5 -10 -11z"/>
<path d="M6586 6357 c3 -10 9 -15 12 -12 3 3 0 11 -7 18 -10 9 -11 8 -5 -6z"/>
<path d="M6581 6314 c0 -11 3 -14 6 -6 3 7 2 16 -1 19 -3 4 -6 -2 -5 -13z"/>
<path d="M6541 6284 c0 -11 3 -14 6 -6 3 7 2 16 -1 19 -3 4 -6 -2 -5 -13z"/>
<path d="M6540 6204 c0 -13 18 -39 24 -34 2 3 -2 14 -10 24 -8 11 -14 16 -14
10z"/>
<path d="M6623 6137 c0 -8 6 -14 14 -14 9 0 10 4 2 14 -6 7 -12 13 -14 13 -1
0 -2 -6 -2 -13z"/>
<path d="M6595 6121 c-3 -5 -2 -12 3 -15 5 -3 9 1 9 9 0 17 -3 19 -12 6z"/>
<path d="M6655 6110 c-4 -6 -1 -9 7 -8 8 2 12 -5 10 -17 -2 -14 0 -16 6 -7 12
18 35 -9 26 -32 -8 -21 -13 -20 -44 7 -14 12 6 -8 45 -45 47 -45 77 -66 93
-65 12 1 22 2 22 3 0 1 -12 10 -27 19 -24 16 -26 16 -20 1 4 -11 3 -15 -4 -11
-6 4 -8 13 -5 20 2 7 -2 21 -9 32 -13 17 -14 16 -10 -7 4 -24 4 -24 -10 -6 -9
12 -11 24 -6 29 11 11 51 -13 51 -31 0 -7 5 -10 12 -6 7 4 8 3 4 -4 -5 -8 1
-12 14 -12 12 0 19 -4 16 -9 -4 -5 0 -12 6 -14 10 -4 10 -6 1 -6 -7 -1 -13 -9
-14 -18 0 -15 -2 -15 -9 2 -10 24 -12 17 -14 -50 -1 -35 -8 -60 -24 -83 -20
-27 -22 -35 -11 -48 10 -12 10 -17 -1 -27 -10 -10 -12 -9 -7 5 9 26 -3 29 -33
8 -31 -22 -39 -56 -9 -37 11 7 14 14 8 18 -7 4 -5 9 5 12 9 4 17 3 17 -1 5
-28 3 -47 -6 -48 -5 -1 -9 2 -7 8 1 5 -2 7 -8 3 -6 -3 -8 -10 -5 -15 3 -4 2
-10 -2 -13 -5 -2 -2 -2 5 -1 18 5 14 -13 -5 -22 -10 -4 -22 -8 -27 -8 -5 -1
-11 -8 -13 -16 -4 -12 -3 -12 5 -2 5 8 13 13 18 13 21 -2 44 12 44 26 0 9 6
13 14 10 15 -6 46 22 46 40 0 6 6 13 13 16 8 3 24 26 35 51 30 63 29 137 -2
190 -23 40 -83 93 -98 88 -5 -1 -8 2 -8 6 0 16 -79 72 -85 62z m73 -72 c-2 -6
-10 -14 -16 -16 -7 -2 -10 2 -6 12 7 18 28 22 22 4z m111 -170 c18 -11 18 -12
-2 -29 -21 -17 -21 -18 -4 -37 19 -21 6 -25 -21 -8 -10 6 -10 13 4 34 12 18
13 27 6 30 -12 4 -17 22 -7 22 3 0 14 -5 24 -12z m-14 -101 c4 5 3 -2 -3 -13
-6 -12 -8 -25 -4 -30 4 -5 3 -6 -2 -2 -11 9 -38 -11 -31 -22 3 -4 -1 -13 -9
-19 -10 -9 -15 -8 -19 3 -3 7 8 26 24 42 28 27 28 28 11 48 -17 21 -17 21 4 3
11 -9 24 -14 29 -10z m-35 -18 c0 -5 -4 -9 -10 -9 -5 0 -10 7 -10 16 0 8 5 12
10 9 6 -3 10 -10 10 -16z"/>
<path d="M6641 5691 c-23 -6 -23 -7 -5 -21 11 -8 15 -10 11 -5 -4 5 3 15 15
22 25 13 17 15 -21 4z"/>
<path d="M6595 5600 c-27 -7 -28 -8 -5 -8 14 0 34 3 45 8 25 11 2 11 -40 0z"/>
<path d="M7121 4935 c-18 -41 -33 -78 -34 -82 0 -4 -6 -12 -13 -18 -7 -5 -14
-17 -16 -25 -2 -8 -10 -21 -18 -28 -13 -12 -13 -13 3 -8 11 3 16 2 12 -4 -3
-6 -12 -10 -19 -10 -20 0 -49 -37 -40 -51 4 -7 3 -10 -2 -7 -5 4 -27 -12 -49
-34 l-40 -41 37 27 c20 15 39 23 42 18 6 -11 -27 -44 -37 -37 -4 3 -5 2 -2 -2
3 -3 -1 -13 -7 -22 -7 -9 -2 -7 11 4 45 38 150 195 131 195 -6 0 -1 9 10 20
12 12 18 25 15 30 -4 6 -2 10 3 10 6 0 13 12 18 28 10 35 9 32 23 66 6 16 10
33 9 37 -2 5 -18 -25 -37 -66z m-98 -216 c-8 -8 -13 -7 -18 2 -5 8 -4 10 3 5
7 -4 12 -2 12 5 0 7 3 9 7 6 4 -4 2 -12 -4 -18z"/>
<path d="M6865 4599 c-11 -17 1 -21 15 -4 8 9 8 15 2 15 -6 0 -14 -5 -17 -11z"/>
<path d="M6844 4528 l-19 -23 23 19 c21 18 27 26 19 26 -2 0 -12 -10 -23 -22z"/>
<path d="M6794 4494 c-18 -14 -18 -15 4 -4 12 6 22 13 22 15 0 8 -5 6 -26 -11z"/>
<path d="M6647 4439 c7 -7 15 -10 18 -7 3 3 -2 9 -12 12 -14 6 -15 5 -6 -5z"/>
</g>
</svg>
